<?xml version="1.0" encoding="UTF-8"?>
<svg version="1.1" xmlns="http://www.w3.org/2000/svg" width="357" height="285">
<path d="M0 0 C117.81 0 235.62 0 357 0 C357 94.05 357 188.1 357 285 C239.19 285 121.38 285 0 285 C0 190.95 0 96.9 0 0 Z " fill="#1C1C1C" transform="translate(0,0)"/>
<path d="M0 0 C34.65 0 69.3 0 105 0 C105 8.25 105 16.5 105 25 C96.42 25 87.84 25 79 25 C79 34.24 79 43.48 79 53 C105.4 53 131.8 53 159 53 C159 61.58 159 70.16 159 79 C167.58 79 176.16 79 185 79 C185 61.51 185 44.02 185 26 C167.84 26 150.68 26 133 26 C133 17.42 133 8.84 133 0 C159.07 0 185.14 0 212 0 C212 34.65 212 69.3 212 105 C185.93 105 159.86 105 133 105 C133 96.42 133 87.84 133 79 C106.93 79 80.86 79 54 79 C54 61.51 54 44.02 54 26 C45.09 26 36.18 26 27 26 C27 43.49 27 60.98 27 79 C18.09 79 9.18 79 0 79 C0 52.93 0 26.86 0 0 Z " fill="#F7F7F7" transform="translate(66,41)"/>
<path d="M0 0 C9.24 0 18.48 0 28 0 C28 26.07 28 52.14 28 79 C36.25 79 44.5 79 53 79 C53 52.93 53 26.86 53 0 C62.24 0 71.48 0 81 0 C81 8.58 81 17.16 81 26 C98.16 26 115.32 26 133 26 C133 35.24 133 44.48 133 54 C115.84 54 98.68 54 81 54 C81 71.49 81 88.98 81 107 C54.27 107 27.54 107 0 107 C0 71.69 0 36.38 0 0 Z " fill="#EFEFEF" transform="translate(66,146)"/>
<path d="M0 0 C9.57 0 19.14 0 29 0 C29 26.4 29 52.8 29 80 C-6.31 80 -41.62 80 -78 80 C-78 71.09 -78 62.18 -78 53 C-52.26 53 -26.52 53 0 53 C0 35.51 0 18.02 0 0 Z " fill="#ECECEC" transform="translate(250,172)"/>
</svg>
